<svg width="456" height="133" viewBox="0 0 456 133" fill="none" xmlns="http://www.w3.org/2000/svg">
<path d="M201.92 64.8564L339.406 127.273L349.885 132.069L455.464 64.8564H201.92Z" fill="#FF6333"/>
<path d="M452.881 0.543304L349.315 68.7707L344.427 126.09L349.315 130.473L450.861 65.8923L452.881 0.543304Z" fill="#F5E7C3"/>
<path d="M448.313 13.3389L351.961 76.6182V79.7225L447.716 16.6819L448.313 13.3389Z" fill="#F1E3BD"/>
<path d="M448.313 20.317L351.961 83.5963V86.7006L447.716 23.66L448.313 20.317Z" fill="#F1E3BD"/>
<path d="M448.313 27.295L351.961 90.5744V93.6787L447.716 30.6381L448.313 27.295Z" fill="#F1E3BD"/>
<path d="M448.313 34.2731L351.961 97.5525V100.657L447.716 37.6162L448.313 34.2731Z" fill="#F1E3BD"/>
<path d="M448.313 41.2512L351.961 104.531V107.635L447.716 44.5943L448.313 41.2512Z" fill="#F1E3BD"/>
<path d="M448.313 48.2293L351.961 111.509V114.613L447.716 51.5724L448.313 48.2293Z" fill="#F1E3BD"/>
<path d="M448.313 55.2074L351.961 118.487V121.591L447.716 58.5504L448.313 55.2074Z" fill="#F1E3BD"/>
<rect x="0.705383" y="132.052" width="63.4255" height="349.239" transform="rotate(-90 0.705383 132.052)" fill="#F45321"/>
<rect x="27.0271" y="82.8027" width="34.3719" height="35.0722" stroke="white" stroke-width="2.41568"/>
<path d="M45.939 104.479H50.6939C50.5985 106.038 50.1691 107.421 49.4058 108.63C48.653 109.838 47.5982 110.782 46.2411 111.461C44.8947 112.139 43.2726 112.478 41.3749 112.478C39.8907 112.478 38.5601 112.224 37.3833 111.715C36.2065 111.196 35.1994 110.453 34.3618 109.489C33.5349 108.524 32.9041 107.358 32.4694 105.99C32.0347 104.622 31.8174 103.09 31.8174 101.394V99.788C31.8174 98.0917 32.04 96.5597 32.4853 95.1921C32.9412 93.8139 33.5879 92.6424 34.4254 91.6776C35.2736 90.7129 36.2861 89.9707 37.4629 89.4512C38.6397 88.9318 39.9543 88.672 41.4067 88.672C43.3362 88.672 44.9636 89.0219 46.2888 89.7216C47.6247 90.4213 48.6583 91.3861 49.3899 92.6159C50.132 93.8457 50.5773 95.2451 50.7257 96.8142H45.9549C45.9019 95.8812 45.7163 95.0914 45.3983 94.4447C45.0802 93.7874 44.5979 93.2944 43.9511 92.9657C43.315 92.6265 42.4669 92.4569 41.4067 92.4569C40.6116 92.4569 39.9172 92.6053 39.3235 92.9021C38.7298 93.199 38.2315 93.6496 37.8286 94.2539C37.4257 94.8582 37.1236 95.6215 36.9222 96.5438C36.7313 97.4556 36.6359 98.5264 36.6359 99.7562V101.394C36.6359 102.592 36.726 103.647 36.9063 104.559C37.0865 105.46 37.3621 106.223 37.7332 106.849C38.1149 107.464 38.6025 107.93 39.1962 108.248C39.8005 108.556 40.5268 108.709 41.3749 108.709C42.3715 108.709 43.1931 108.55 43.8398 108.232C44.4865 107.914 44.9795 107.442 45.3188 106.817C45.6686 106.191 45.8754 105.412 45.939 104.479ZM51.7136 106.101C51.7136 105.688 51.65 105.317 51.5227 104.988C51.4061 104.649 51.1835 104.341 50.8548 104.066C50.5262 103.78 50.065 103.499 49.4713 103.223C48.8776 102.947 48.109 102.661 47.1654 102.364C46.1158 102.025 45.1193 101.643 44.1757 101.219C43.2427 100.795 42.4158 100.302 41.6949 99.7403C40.9846 99.1678 40.4227 98.5052 40.0092 97.7524C39.6063 96.9997 39.4049 96.1251 39.4049 95.1285C39.4049 94.1637 39.6169 93.2891 40.041 92.5046C40.4651 91.7094 41.0588 91.0309 41.8221 90.469C42.5854 89.8965 43.4866 89.4565 44.5256 89.1491C45.5751 88.8416 46.7254 88.6879 47.9764 88.6879C49.6833 88.6879 51.1729 88.9954 52.4451 89.6103C53.7173 90.2252 54.7033 91.068 55.403 92.1388C56.1133 93.2096 56.4685 94.4341 56.4685 95.8123H51.7295C51.7295 95.1338 51.5863 94.5401 51.3001 94.0312C51.0244 93.5117 50.6004 93.1036 50.0279 92.8067C49.466 92.5099 48.7557 92.3614 47.8969 92.3614C47.07 92.3614 46.3809 92.4887 45.8296 92.7431C45.2783 92.9869 44.8648 93.3209 44.5892 93.745C44.3135 94.1584 44.1757 94.6249 44.1757 95.1444C44.1757 95.5367 44.2711 95.8918 44.4619 96.2099C44.6634 96.5279 44.9602 96.8248 45.3525 97.1004C45.7448 97.3761 46.2271 97.6358 46.7996 97.8797C47.3721 98.1235 48.0347 98.362 48.7875 98.5953C50.0491 98.977 51.157 99.4063 52.1111 99.8834C53.0759 100.36 53.8816 100.896 54.5283 101.49C55.175 102.083 55.6627 102.756 55.9914 103.509C56.32 104.262 56.4844 105.115 56.4844 106.07C56.4844 107.077 56.2882 107.978 55.896 108.773C55.5037 109.568 54.9365 110.241 54.1944 110.793C53.4523 111.344 52.567 111.763 51.5386 112.049C50.5103 112.335 49.36 112.478 48.0878 112.478C46.9428 112.478 45.8137 112.33 44.7005 112.033C43.5873 111.726 42.5748 111.264 41.6631 110.65C40.7619 110.035 40.041 109.25 39.5003 108.296C38.9596 107.342 38.6893 106.213 38.6893 104.909H43.476C43.476 105.63 43.5873 106.239 43.8099 106.737C44.0326 107.236 44.3453 107.639 44.7482 107.946C45.1617 108.254 45.6493 108.476 46.2112 108.614C46.7837 108.752 47.4092 108.821 48.0878 108.821C48.9147 108.821 49.5932 108.704 50.1233 108.471C50.664 108.238 51.0616 107.914 51.316 107.501C51.581 107.087 51.7136 106.621 51.7136 106.101Z" fill="white"/>
<path d="M99.8163 102.75H104.571C104.476 104.309 104.046 105.692 103.283 106.901C102.53 108.11 101.475 109.053 100.118 109.732C98.772 110.41 97.15 110.749 95.2522 110.749C93.768 110.749 92.4375 110.495 91.2607 109.986C90.0839 109.467 89.0767 108.725 88.2391 107.76C87.4122 106.795 86.7814 105.629 86.3467 104.261C85.9121 102.894 85.6947 101.362 85.6947 99.6653V98.0591C85.6947 96.3628 85.9174 94.8309 86.3626 93.4632C86.8185 92.085 87.4652 90.9135 88.3028 89.9487C89.1509 88.984 90.1634 88.2419 91.3402 87.7224C92.517 87.2029 93.8316 86.9431 95.284 86.9431C97.2136 86.9431 98.8409 87.293 100.166 87.9927C101.502 88.6924 102.536 89.6572 103.267 90.887C104.009 92.1168 104.455 93.5162 104.603 95.0853H99.8322C99.7792 94.1523 99.5937 93.3625 99.2756 92.7158C98.9576 92.0585 98.4752 91.5655 97.8285 91.2369C97.1924 90.8976 96.3442 90.728 95.284 90.728C94.4889 90.728 93.7945 90.8764 93.2008 91.1732C92.6071 91.4701 92.1088 91.9207 91.7059 92.525C91.3031 93.1293 91.0009 93.8926 90.7995 94.815C90.6086 95.7267 90.5132 96.7975 90.5132 98.0273V99.6653C90.5132 100.863 90.6033 101.918 90.7836 102.83C90.9638 103.731 91.2395 104.494 91.6105 105.12C91.9922 105.735 92.4799 106.201 93.0736 106.519C93.6779 106.827 94.4041 106.981 95.2522 106.981C96.2488 106.981 97.0704 106.821 97.7171 106.503C98.3639 106.185 98.8568 105.714 99.1961 105.088C99.546 104.463 99.7527 103.683 99.8163 102.75ZM111.998 96.9777V110.431H107.418V93.2247H111.727L111.998 96.9777ZM117.182 93.1134L117.103 97.3594C116.88 97.3276 116.61 97.3011 116.291 97.2799C115.984 97.2481 115.703 97.2322 115.449 97.2322C114.802 97.2322 114.24 97.317 113.763 97.4866C113.296 97.6456 112.904 97.8842 112.586 98.2022C112.279 98.5203 112.045 98.9073 111.886 99.3631C111.738 99.819 111.653 100.338 111.632 100.922L110.71 100.635C110.71 99.5222 110.821 98.4991 111.044 97.5661C111.266 96.6226 111.59 95.8009 112.014 95.1012C112.448 94.4015 112.978 93.8608 113.604 93.4791C114.229 93.0975 114.945 92.9066 115.751 92.9066C116.005 92.9066 116.265 92.9278 116.53 92.9702C116.795 93.0021 117.012 93.0498 117.182 93.1134ZM124.736 108.491L129.3 93.2247H134.214L127.296 113.024C127.148 113.458 126.946 113.925 126.692 114.423C126.448 114.921 126.114 115.393 125.69 115.838C125.276 116.294 124.752 116.665 124.116 116.951C123.49 117.238 122.721 117.381 121.81 117.381C121.375 117.381 121.02 117.354 120.744 117.301C120.469 117.248 120.14 117.174 119.758 117.079V113.723C119.875 113.723 119.997 113.723 120.124 113.723C120.251 113.734 120.373 113.739 120.49 113.739C121.094 113.739 121.587 113.67 121.969 113.532C122.35 113.395 122.658 113.183 122.891 112.896C123.124 112.621 123.31 112.26 123.448 111.815L124.736 108.491ZM122.827 93.2247L126.565 105.692L127.217 110.543L124.1 110.877L117.914 93.2247H122.827ZM140.623 96.5324V117.047H136.043V93.2247H140.289L140.623 96.5324ZM151.516 101.637V101.971C151.516 103.222 151.368 104.383 151.071 105.454C150.784 106.525 150.36 107.458 149.798 108.253C149.237 109.037 148.537 109.652 147.699 110.097C146.872 110.532 145.918 110.749 144.837 110.749C143.787 110.749 142.875 110.537 142.102 110.113C141.328 109.689 140.676 109.096 140.146 108.332C139.626 107.558 139.207 106.662 138.889 105.645C138.571 104.627 138.327 103.535 138.158 102.369V101.494C138.327 100.243 138.571 99.0981 138.889 98.0591C139.207 97.0095 139.626 96.1031 140.146 95.3397C140.676 94.5658 141.322 93.9668 142.086 93.5427C142.86 93.1187 143.766 92.9066 144.805 92.9066C145.897 92.9066 146.856 93.1134 147.683 93.5268C148.521 93.9403 149.221 94.534 149.783 95.3079C150.355 96.0819 150.784 97.0042 151.071 98.075C151.368 99.1458 151.516 100.333 151.516 101.637ZM146.92 101.971V101.637C146.92 100.906 146.856 100.232 146.729 99.6176C146.613 98.9921 146.422 98.4461 146.157 97.9796C145.902 97.5131 145.563 97.1527 145.139 96.8982C144.725 96.6332 144.222 96.5006 143.628 96.5006C143.003 96.5006 142.467 96.6014 142.022 96.8028C141.587 97.0042 141.232 97.2958 140.957 97.6774C140.681 98.0591 140.474 98.515 140.336 99.0451C140.199 99.5752 140.114 100.174 140.082 100.842V103.053C140.135 103.837 140.283 104.542 140.527 105.168C140.771 105.783 141.147 106.27 141.656 106.631C142.165 106.991 142.833 107.171 143.66 107.171C144.264 107.171 144.773 107.039 145.187 106.774C145.6 106.498 145.934 106.122 146.189 105.645C146.454 105.168 146.639 104.616 146.745 103.991C146.862 103.365 146.92 102.692 146.92 101.971ZM162.791 93.2247V96.4688H152.772V93.2247H162.791ZM155.253 88.9787H159.833V105.247C159.833 105.745 159.897 106.127 160.024 106.392C160.162 106.657 160.363 106.843 160.628 106.949C160.893 107.044 161.227 107.092 161.63 107.092C161.916 107.092 162.171 107.081 162.393 107.06C162.627 107.028 162.823 106.996 162.982 106.965L162.998 110.336C162.605 110.463 162.181 110.564 161.725 110.638C161.27 110.712 160.766 110.749 160.215 110.749C159.208 110.749 158.328 110.585 157.575 110.256C156.833 109.917 156.26 109.377 155.857 108.634C155.454 107.892 155.253 106.917 155.253 105.708V88.9787ZM164.254 102.003V101.669C164.254 100.407 164.434 99.2465 164.795 98.1863C165.155 97.1155 165.68 96.1879 166.369 95.4034C167.058 94.6188 167.906 94.0092 168.913 93.5746C169.921 93.1293 171.076 92.9066 172.38 92.9066C173.684 92.9066 174.845 93.1293 175.863 93.5746C176.881 94.0092 177.734 94.6188 178.423 95.4034C179.123 96.1879 179.653 97.1155 180.014 98.1863C180.374 99.2465 180.554 100.407 180.554 101.669V102.003C180.554 103.254 180.374 104.415 180.014 105.486C179.653 106.546 179.123 107.473 178.423 108.269C177.734 109.053 176.886 109.663 175.879 110.097C174.872 110.532 173.716 110.749 172.412 110.749C171.108 110.749 169.947 110.532 168.929 110.097C167.922 109.663 167.069 109.053 166.369 108.269C165.68 107.473 165.155 106.546 164.795 105.486C164.434 104.415 164.254 103.254 164.254 102.003ZM168.834 101.669V102.003C168.834 102.724 168.898 103.397 169.025 104.023C169.152 104.648 169.353 105.199 169.629 105.676C169.915 106.143 170.286 106.509 170.742 106.774C171.198 107.039 171.755 107.171 172.412 107.171C173.048 107.171 173.594 107.039 174.05 106.774C174.506 106.509 174.872 106.143 175.147 105.676C175.423 105.199 175.624 104.648 175.752 104.023C175.889 103.397 175.958 102.724 175.958 102.003V101.669C175.958 100.969 175.889 100.312 175.752 99.6971C175.624 99.0716 175.418 98.5203 175.131 98.0432C174.856 97.5555 174.49 97.1739 174.034 96.8982C173.578 96.6226 173.027 96.4847 172.38 96.4847C171.734 96.4847 171.182 96.6226 170.726 96.8982C170.281 97.1739 169.915 97.5555 169.629 98.0432C169.353 98.5203 169.152 99.0716 169.025 99.6971C168.898 100.312 168.834 100.969 168.834 101.669ZM190.478 107.171C191.039 107.171 191.538 107.065 191.972 106.853C192.407 106.631 192.746 106.323 192.99 105.931C193.245 105.528 193.377 105.056 193.388 104.516H197.697C197.687 105.724 197.363 106.8 196.727 107.744C196.091 108.677 195.238 109.414 194.167 109.954C193.096 110.484 191.898 110.749 190.573 110.749C189.237 110.749 188.071 110.527 187.074 110.082C186.088 109.636 185.267 109.021 184.609 108.237C183.952 107.442 183.459 106.519 183.13 105.47C182.802 104.41 182.637 103.275 182.637 102.067V101.605C182.637 100.386 182.802 99.2518 183.13 98.2022C183.459 97.1421 183.952 96.2197 184.609 95.4352C185.267 94.64 186.088 94.0198 187.074 93.5746C188.06 93.1293 189.216 92.9066 190.541 92.9066C191.951 92.9066 193.186 93.177 194.246 93.7177C195.317 94.2584 196.155 95.0323 196.759 96.0395C197.374 97.036 197.687 98.2181 197.697 99.5858H193.388C193.377 99.0133 193.255 98.4938 193.022 98.0273C192.799 97.5608 192.471 97.1898 192.036 96.9141C191.612 96.6279 191.087 96.4847 190.462 96.4847C189.794 96.4847 189.248 96.6279 188.824 96.9141C188.4 97.1898 188.071 97.5714 187.838 98.0591C187.604 98.5362 187.44 99.0822 187.345 99.6971C187.26 100.301 187.217 100.937 187.217 101.605V102.067C187.217 102.734 187.26 103.376 187.345 103.991C187.429 104.606 187.589 105.152 187.822 105.629C188.066 106.106 188.4 106.482 188.824 106.758C189.248 107.034 189.799 107.171 190.478 107.171ZM210.531 106.313V93.2247H215.111V110.431H210.801L210.531 106.313ZM211.04 102.782L212.391 102.75C212.391 103.895 212.259 104.961 211.994 105.947C211.729 106.922 211.331 107.77 210.801 108.491C210.271 109.202 209.603 109.758 208.797 110.161C207.992 110.553 207.043 110.749 205.951 110.749C205.113 110.749 204.339 110.633 203.629 110.4C202.929 110.156 202.325 109.779 201.816 109.271C201.318 108.751 200.926 108.088 200.639 107.283C200.364 106.466 200.226 105.486 200.226 104.341V93.2247H204.806V104.372C204.806 104.881 204.864 105.311 204.981 105.661C205.108 106.01 205.283 106.297 205.506 106.519C205.728 106.742 205.988 106.901 206.285 106.996C206.592 107.092 206.931 107.14 207.303 107.14C208.246 107.14 208.988 106.949 209.529 106.567C210.08 106.185 210.467 105.666 210.69 105.009C210.923 104.341 211.04 103.599 211.04 102.782ZM223.189 96.9777V110.431H218.609V93.2247H222.919L223.189 96.9777ZM228.374 93.1134L228.294 97.3594C228.071 97.3276 227.801 97.3011 227.483 97.2799C227.176 97.2481 226.895 97.2322 226.64 97.2322C225.994 97.2322 225.432 97.317 224.955 97.4866C224.488 97.6456 224.096 97.8842 223.778 98.2022C223.47 98.5203 223.237 98.9073 223.078 99.3631C222.93 99.819 222.845 100.338 222.824 100.922L221.901 100.635C221.901 99.5222 222.013 98.4991 222.235 97.5661C222.458 96.6226 222.781 95.8009 223.205 95.1012C223.64 94.4015 224.17 93.8608 224.796 93.4791C225.421 93.0975 226.137 92.9066 226.942 92.9066C227.197 92.9066 227.457 92.9278 227.722 92.9702C227.987 93.0021 228.204 93.0498 228.374 93.1134ZM235.116 96.9777V110.431H230.536V93.2247H234.846L235.116 96.9777ZM240.301 93.1134L240.221 97.3594C239.998 97.3276 239.728 97.3011 239.41 97.2799C239.103 97.2481 238.822 97.2322 238.567 97.2322C237.921 97.2322 237.359 97.317 236.882 97.4866C236.415 97.6456 236.023 97.8842 235.705 98.2022C235.397 98.5203 235.164 98.9073 235.005 99.3631C234.857 99.819 234.772 100.338 234.751 100.922L233.828 100.635C233.828 99.5222 233.94 98.4991 234.162 97.5661C234.385 96.6226 234.708 95.8009 235.132 95.1012C235.567 94.4015 236.097 93.8608 236.723 93.4791C237.348 93.0975 238.064 92.9066 238.869 92.9066C239.124 92.9066 239.384 92.9278 239.649 92.9702C239.914 93.0021 240.131 93.0498 240.301 93.1134ZM250.065 110.749C248.729 110.749 247.531 110.537 246.471 110.113C245.411 109.679 244.51 109.08 243.767 108.316C243.036 107.553 242.474 106.668 242.082 105.661C241.689 104.643 241.493 103.561 241.493 102.416V101.78C241.493 100.476 241.679 99.2836 242.05 98.2022C242.421 97.1208 242.951 96.1826 243.64 95.3875C244.34 94.5923 245.188 93.9827 246.185 93.5586C247.181 93.124 248.305 92.9066 249.556 92.9066C250.775 92.9066 251.857 93.1081 252.8 93.5109C253.744 93.9138 254.534 94.4863 255.17 95.2284C255.816 95.9706 256.304 96.8611 256.633 97.9001C256.961 98.9285 257.126 100.073 257.126 101.335V103.243H243.449V100.19H252.625V99.8402C252.625 99.2041 252.509 98.6369 252.275 98.1386C252.053 97.6297 251.713 97.2269 251.258 96.93C250.802 96.6332 250.219 96.4847 249.508 96.4847C248.904 96.4847 248.384 96.6173 247.95 96.8823C247.515 97.1474 247.16 97.5184 246.884 97.9955C246.619 98.4726 246.418 99.0345 246.28 99.6812C246.153 100.317 246.089 101.017 246.089 101.78V102.416C246.089 103.106 246.185 103.742 246.375 104.325C246.577 104.908 246.858 105.411 247.218 105.836C247.589 106.26 248.035 106.588 248.554 106.821C249.084 107.055 249.683 107.171 250.351 107.171C251.178 107.171 251.947 107.012 252.657 106.694C253.378 106.366 253.998 105.873 254.518 105.215L256.744 107.633C256.384 108.152 255.891 108.65 255.265 109.127C254.65 109.604 253.908 109.997 253.039 110.304C252.169 110.601 251.178 110.749 250.065 110.749ZM264.218 96.8982V110.431H259.638V93.2247H263.932L264.218 96.8982ZM263.55 101.224H262.31C262.31 99.9515 262.474 98.8065 262.803 97.7888C263.132 96.7604 263.593 95.8857 264.186 95.1648C264.78 94.4333 265.485 93.8767 266.302 93.495C267.128 93.1028 268.051 92.9066 269.069 92.9066C269.874 92.9066 270.611 93.0233 271.279 93.2565C271.947 93.4897 272.519 93.8608 272.997 94.3697C273.484 94.8786 273.855 95.5518 274.11 96.3893C274.375 97.2269 274.507 98.2499 274.507 99.4585V110.431H269.896V99.4426C269.896 98.6793 269.79 98.0856 269.577 97.6615C269.365 97.2375 269.053 96.9406 268.639 96.771C268.236 96.5908 267.738 96.5006 267.144 96.5006C266.529 96.5006 265.994 96.6226 265.538 96.8664C265.093 97.1102 264.722 97.4495 264.425 97.8842C264.139 98.3082 263.921 98.8065 263.773 99.379C263.625 99.9515 263.55 100.566 263.55 101.224ZM285.098 107.171C285.66 107.171 286.159 107.065 286.593 106.853C287.028 106.631 287.367 106.323 287.611 105.931C287.866 105.528 287.998 105.056 288.009 104.516H292.318C292.308 105.724 291.984 106.8 291.348 107.744C290.712 108.677 289.859 109.414 288.788 109.954C287.717 110.484 286.519 110.749 285.194 110.749C283.858 110.749 282.692 110.527 281.695 110.082C280.709 109.636 279.888 109.021 279.23 108.237C278.573 107.442 278.08 106.519 277.751 105.47C277.423 104.41 277.258 103.275 277.258 102.067V101.605C277.258 100.386 277.423 99.2518 277.751 98.2022C278.08 97.1421 278.573 96.2197 279.23 95.4352C279.888 94.64 280.709 94.0198 281.695 93.5746C282.681 93.1293 283.837 92.9066 285.162 92.9066C286.572 92.9066 287.807 93.177 288.867 93.7177C289.938 94.2584 290.776 95.0323 291.38 96.0395C291.995 97.036 292.308 98.2181 292.318 99.5858H288.009C287.998 99.0133 287.876 98.4938 287.643 98.0273C287.42 97.5608 287.092 97.1898 286.657 96.9141C286.233 96.6279 285.708 96.4847 285.083 96.4847C284.415 96.4847 283.869 96.6279 283.445 96.9141C283.021 97.1898 282.692 97.5714 282.459 98.0591C282.225 98.5362 282.061 99.0822 281.966 99.6971C281.881 100.301 281.838 100.937 281.838 101.605V102.067C281.838 102.734 281.881 103.376 281.966 103.991C282.05 104.606 282.209 105.152 282.443 105.629C282.687 106.106 283.021 106.482 283.445 106.758C283.869 107.034 284.42 107.171 285.098 107.171ZM300.079 108.491L304.643 93.2247H309.557L302.639 113.024C302.491 113.458 302.289 113.925 302.035 114.423C301.791 114.921 301.457 115.393 301.033 115.838C300.62 116.294 300.095 116.665 299.459 116.951C298.833 117.238 298.064 117.381 297.153 117.381C296.718 117.381 296.363 117.354 296.087 117.301C295.812 117.248 295.483 117.174 295.101 117.079V113.723C295.218 113.723 295.34 113.723 295.467 113.723C295.594 113.734 295.716 113.739 295.833 113.739C296.437 113.739 296.93 113.67 297.312 113.532C297.693 113.395 298.001 113.183 298.234 112.896C298.467 112.621 298.653 112.26 298.791 111.815L300.079 108.491ZM298.17 93.2247L301.908 105.692L302.56 110.543L299.443 110.877L293.257 93.2247H298.17Z" fill="white"/>
<path d="M201.92 0.537292L0.770569 68.6873H349.502L455.464 0.537292H201.92Z" fill="#FF6333"/>
</svg>
