<svg width="606" height="621" viewBox="0 0 606 621" fill="none" xmlns="http://www.w3.org/2000/svg">
<mask id="mask0_3_420" style="mask-type:alpha" maskUnits="userSpaceOnUse" x="0" y="15" width="606" height="606">
<rect x="0.937866" y="15.9497" width="604.993" height="604.993" rx="11.9917" fill="#1F2120"/>
</mask>
<g mask="url(#mask0_3_420)">
<g filter="url(#filter0_d_3_420)">
<rect x="-1.67432" y="368.167" width="21.9842" height="150.206" fill="#DC5050"/>
</g>
<g filter="url(#filter1_d_3_420)">
<rect x="305.08" y="129.327" width="21.9842" height="150.206" fill="#DC5050"/>
</g>
<g filter="url(#filter2_d_3_420)">
<rect x="54.0991" y="419.111" width="21.9842" height="101.393" fill="#DC5050"/>
</g>
<g filter="url(#filter3_d_3_420)">
<rect x="360.853" y="180.271" width="21.9842" height="101.393" fill="#DC5050"/>
</g>
<g filter="url(#filter4_d_3_420)">
<rect x="137.759" y="320.604" width="21.9842" height="141.818" fill="#DC5050"/>
</g>
<g filter="url(#filter5_d_3_420)">
<rect x="444.513" y="81.7641" width="21.9842" height="141.818" fill="#DC5050"/>
</g>
<g filter="url(#filter6_d_3_420)">
<rect x="193.533" y="301.033" width="21.9842" height="201.859" fill="#DC5050"/>
</g>
<g filter="url(#filter7_d_3_420)">
<rect x="500.287" y="62.1931" width="21.9842" height="201.859" fill="#DC5050"/>
</g>
<g filter="url(#filter8_d_3_420)">
<rect x="249.306" y="193.79" width="21.9842" height="292.116" fill="#DC5050"/>
</g>
<g filter="url(#filter9_d_3_420)">
<rect x="26.2124" y="356.984" width="21.9842" height="263.959" fill="#72FB65"/>
</g>
<g filter="url(#filter10_d_3_420)">
<rect x="332.966" y="118.144" width="21.9842" height="263.959" fill="#72FB65"/>
</g>
<g filter="url(#filter11_d_3_420)">
<rect x="81.9858" y="359.115" width="21.9842" height="170.441" fill="#72FB65"/>
</g>
<g filter="url(#filter12_d_3_420)">
<rect x="388.74" y="120.274" width="21.9842" height="170.441" fill="#72FB65"/>
</g>
<g filter="url(#filter13_d_3_420)">
<rect x="109.873" y="341.503" width="21.9842" height="238.998" fill="#72FB65"/>
</g>
<g filter="url(#filter14_d_3_420)">
<rect x="416.627" y="102.662" width="21.9842" height="238.998" fill="#72FB65"/>
</g>
<g filter="url(#filter15_d_3_420)">
<rect x="165.646" y="324.517" width="21.9842" height="157.477" fill="#72FB65"/>
</g>
<g filter="url(#filter16_d_3_420)">
<rect x="472.4" y="85.6766" width="21.9842" height="157.477" fill="#72FB65"/>
</g>
<g filter="url(#filter17_d_3_420)">
<rect x="221.42" y="195.595" width="21.9842" height="384.78" fill="#72FB65"/>
</g>
<g filter="url(#filter18_d_3_420)">
<rect x="528.174" y="-43.2456" width="21.9842" height="384.78" fill="#72FB65"/>
</g>
<g filter="url(#filter19_d_3_420)">
<rect x="277.193" y="143.262" width="21.9842" height="348.94" fill="#72FB65"/>
</g>
</g>
<path d="M4.04919 361.146V361.463H1.29529V361.146H4.04919ZM8.36169 356.652V365.207H8.04529V357.074L5.59607 357.994V357.648L8.29724 356.652H8.36169ZM11.7426 358.767V358.316C11.7426 357.992 11.809 357.697 11.9418 357.431C12.0746 357.166 12.2601 356.953 12.4984 356.793C12.7406 356.633 13.0199 356.552 13.3363 356.552C13.6527 356.552 13.9301 356.633 14.1683 356.793C14.4066 356.953 14.5922 357.166 14.725 357.431C14.8578 357.697 14.9242 357.992 14.9242 358.316V358.767C14.9242 359.084 14.8578 359.375 14.725 359.64C14.5961 359.906 14.4125 360.119 14.1742 360.279C13.9398 360.439 13.6644 360.519 13.348 360.519C13.0277 360.519 12.7465 360.439 12.5043 360.279C12.2621 360.119 12.0746 359.906 11.9418 359.64C11.809 359.375 11.7426 359.084 11.7426 358.767ZM12.0648 358.316V358.767C12.0648 359.002 12.1097 359.228 12.1996 359.447C12.2933 359.666 12.4359 359.845 12.6273 359.986C12.8187 360.127 13.059 360.197 13.348 360.197C13.6332 360.197 13.8676 360.129 14.0511 359.992C14.2347 359.851 14.3715 359.672 14.4613 359.453C14.5551 359.234 14.6019 359.006 14.6019 358.767V358.316C14.6019 358.074 14.5551 357.843 14.4613 357.625C14.3715 357.406 14.2328 357.226 14.0453 357.086C13.8578 356.945 13.6215 356.875 13.3363 356.875C13.0551 356.875 12.8187 356.945 12.6273 357.086C12.4398 357.226 12.2992 357.406 12.2054 357.625C12.1117 357.843 12.0648 358.074 12.0648 358.316ZM16.1722 363.572V363.115C16.1722 362.795 16.2386 362.502 16.3715 362.236C16.5043 361.97 16.6898 361.758 16.9281 361.597C17.1664 361.437 17.4437 361.357 17.7601 361.357C18.0804 361.357 18.3597 361.437 18.598 361.597C18.8363 361.758 19.0219 361.97 19.1547 362.236C19.2875 362.502 19.3539 362.795 19.3539 363.115V363.572C19.3539 363.892 19.2875 364.185 19.1547 364.451C19.0258 364.716 18.8422 364.929 18.6039 365.09C18.3656 365.25 18.0883 365.33 17.7719 365.33C17.4515 365.33 17.1703 365.25 16.9281 365.09C16.6898 364.929 16.5043 364.716 16.3715 364.451C16.2386 364.185 16.1722 363.892 16.1722 363.572ZM16.4945 363.115V363.572C16.4945 363.81 16.5394 364.039 16.6293 364.258C16.723 364.476 16.8636 364.656 17.0511 364.797C17.2426 364.937 17.4828 365.008 17.7719 365.008C18.057 365.008 18.2914 364.939 18.475 364.802C18.6625 364.662 18.8011 364.482 18.891 364.263C18.9847 364.041 19.0316 363.81 19.0316 363.572V363.115C19.0316 362.853 18.9847 362.615 18.891 362.4C18.8011 362.181 18.6625 362.008 18.475 361.879C18.2875 361.746 18.0492 361.679 17.7601 361.679C17.4828 361.679 17.2484 361.746 17.057 361.879C16.8695 362.008 16.7289 362.181 16.6351 362.4C16.5414 362.615 16.4945 362.853 16.4945 363.115ZM17.7133 357.771L13.5472 364.439L13.2836 364.258L17.4496 357.59L17.7133 357.771Z" fill="white"/>
<path d="M530.35 5.83643V6.14697H524.502V5.83643H530.35ZM527.531 2.8833V9.09424H527.209V2.8833H527.531ZM534.686 1.39502V9.94971H534.369V1.81689L531.92 2.73682V2.39111L534.621 1.39502H534.686ZM543.234 4.89893V6.46924C543.234 7.02393 543.18 7.52393 543.07 7.96924C542.961 8.41455 542.799 8.79346 542.584 9.10596C542.369 9.41455 542.104 9.65283 541.787 9.8208C541.471 9.98486 541.106 10.0669 540.692 10.0669C540.363 10.0669 540.065 10.0142 539.795 9.90869C539.529 9.80322 539.293 9.64893 539.086 9.4458C538.879 9.23877 538.703 8.98877 538.559 8.6958C538.418 8.40283 538.311 8.0708 538.236 7.69971C538.166 7.32471 538.131 6.91455 538.131 6.46924V4.89893C538.131 4.34033 538.186 3.84033 538.295 3.39893C538.408 2.95361 538.572 2.57471 538.787 2.26221C539.006 1.94971 539.274 1.71143 539.59 1.54736C539.906 1.37939 540.27 1.29541 540.68 1.29541C541.008 1.29541 541.307 1.3501 541.576 1.45947C541.846 1.56494 542.084 1.71924 542.291 1.92236C542.498 2.12549 542.67 2.37549 542.807 2.67236C542.947 2.96533 543.053 3.29932 543.123 3.67432C543.197 4.04541 543.234 4.45361 543.234 4.89893ZM542.918 6.45752V4.89893C542.918 4.5083 542.889 4.14502 542.83 3.80908C542.772 3.46924 542.684 3.16455 542.567 2.89502C542.449 2.62549 542.301 2.39502 542.121 2.20361C541.942 2.01221 541.731 1.86572 541.488 1.76416C541.25 1.6626 540.981 1.61182 540.68 1.61182C540.305 1.61182 539.977 1.69189 539.695 1.85205C539.414 2.0083 539.182 2.23291 538.998 2.52588C538.815 2.81494 538.676 3.16064 538.582 3.56299C538.492 3.96533 538.447 4.41064 538.447 4.89893V6.45752C538.447 6.84033 538.477 7.19971 538.535 7.53564C538.594 7.87158 538.682 8.17627 538.799 8.44971C538.92 8.71924 539.07 8.95166 539.25 9.14697C539.43 9.33838 539.639 9.48682 539.877 9.59229C540.119 9.69775 540.391 9.75049 540.692 9.75049C541.07 9.75049 541.399 9.67041 541.676 9.51025C541.957 9.34619 542.19 9.11768 542.373 8.82471C542.557 8.53174 542.693 8.18408 542.783 7.78174C542.873 7.37939 542.918 6.93799 542.918 6.45752ZM544.641 3.51025V3.05908C544.641 2.73486 544.707 2.43994 544.84 2.17432C544.973 1.90869 545.158 1.6958 545.397 1.53564C545.639 1.37549 545.918 1.29541 546.234 1.29541C546.551 1.29541 546.828 1.37549 547.067 1.53564C547.305 1.6958 547.49 1.90869 547.623 2.17432C547.756 2.43994 547.822 2.73486 547.822 3.05908V3.51025C547.822 3.82666 547.756 4.11768 547.623 4.3833C547.494 4.64893 547.311 4.86182 547.072 5.02197C546.838 5.18213 546.563 5.26221 546.246 5.26221C545.926 5.26221 545.645 5.18213 545.402 5.02197C545.16 4.86182 544.973 4.64893 544.84 4.3833C544.707 4.11768 544.641 3.82666 544.641 3.51025ZM544.963 3.05908V3.51025C544.963 3.74463 545.008 3.97119 545.098 4.18994C545.192 4.40869 545.334 4.58838 545.526 4.729C545.717 4.86963 545.957 4.93994 546.246 4.93994C546.531 4.93994 546.766 4.87158 546.949 4.73486C547.133 4.59424 547.27 4.41455 547.359 4.1958C547.453 3.97705 547.5 3.74854 547.5 3.51025V3.05908C547.5 2.81689 547.453 2.58643 547.359 2.36768C547.27 2.14893 547.131 1.96924 546.943 1.82861C546.756 1.68799 546.52 1.61768 546.234 1.61768C545.953 1.61768 545.717 1.68799 545.526 1.82861C545.338 1.96924 545.197 2.14893 545.104 2.36768C545.01 2.58643 544.963 2.81689 544.963 3.05908ZM549.07 8.31494V7.85791C549.07 7.5376 549.137 7.24463 549.27 6.979C549.402 6.71338 549.588 6.50049 549.826 6.34033C550.065 6.18018 550.342 6.1001 550.658 6.1001C550.979 6.1001 551.258 6.18018 551.496 6.34033C551.734 6.50049 551.92 6.71338 552.053 6.979C552.186 7.24463 552.252 7.5376 552.252 7.85791V8.31494C552.252 8.63525 552.186 8.92822 552.053 9.19385C551.924 9.45947 551.74 9.67236 551.502 9.83252C551.264 9.99268 550.986 10.0728 550.67 10.0728C550.35 10.0728 550.068 9.99268 549.826 9.83252C549.588 9.67236 549.402 9.45947 549.27 9.19385C549.137 8.92822 549.07 8.63525 549.07 8.31494ZM549.393 7.85791V8.31494C549.393 8.55322 549.438 8.78174 549.527 9.00049C549.621 9.21924 549.762 9.39893 549.949 9.53955C550.141 9.68018 550.381 9.75049 550.67 9.75049C550.955 9.75049 551.19 9.68213 551.373 9.54541C551.561 9.40479 551.699 9.2251 551.789 9.00635C551.883 8.78369 551.93 8.55322 551.93 8.31494V7.85791C551.93 7.59619 551.883 7.35791 551.789 7.14307C551.699 6.92432 551.561 6.75049 551.373 6.62158C551.186 6.48877 550.947 6.42236 550.658 6.42236C550.381 6.42236 550.147 6.48877 549.955 6.62158C549.768 6.75049 549.627 6.92432 549.533 7.14307C549.44 7.35791 549.393 7.59619 549.393 7.85791ZM550.611 2.51416L546.445 9.18213L546.182 9.00049L550.348 2.33252L550.611 2.51416Z" fill="white"/>
<defs>
<filter id="filter0_d_3_420" x="-6.47101" y="366.968" width="31.5776" height="159.8" filterUnits="userSpaceOnUse" color-interpolation-filters="sRGB">
<feFlood flood-opacity="0" result="BackgroundImageFix"/>
<feColorMatrix in="SourceAlpha" type="matrix" values="0 0 0 0 0 0 0 0 0 0 0 0 0 0 0 0 0 0 127 0" result="hardAlpha"/>
<feOffset dy="3.59752"/>
<feGaussianBlur stdDeviation="2.39835"/>
<feComposite in2="hardAlpha" operator="out"/>
<feColorMatrix type="matrix" values="0 0 0 0 0.956863 0 0 0 0 0.294118 0 0 0 0 0.294118 0 0 0 0.25 0"/>
<feBlend mode="normal" in2="BackgroundImageFix" result="effect1_dropShadow_3_420"/>
<feBlend mode="normal" in="SourceGraphic" in2="effect1_dropShadow_3_420" result="shape"/>
</filter>
<filter id="filter1_d_3_420" x="300.283" y="128.127" width="31.5776" height="159.8" filterUnits="userSpaceOnUse" color-interpolation-filters="sRGB">
<feFlood flood-opacity="0" result="BackgroundImageFix"/>
<feColorMatrix in="SourceAlpha" type="matrix" values="0 0 0 0 0 0 0 0 0 0 0 0 0 0 0 0 0 0 127 0" result="hardAlpha"/>
<feOffset dy="3.59752"/>
<feGaussianBlur stdDeviation="2.39835"/>
<feComposite in2="hardAlpha" operator="out"/>
<feColorMatrix type="matrix" values="0 0 0 0 0.956863 0 0 0 0 0.294118 0 0 0 0 0.294118 0 0 0 0.25 0"/>
<feBlend mode="normal" in2="BackgroundImageFix" result="effect1_dropShadow_3_420"/>
<feBlend mode="normal" in="SourceGraphic" in2="effect1_dropShadow_3_420" result="shape"/>
</filter>
<filter id="filter2_d_3_420" x="49.3024" y="417.912" width="31.5776" height="110.986" filterUnits="userSpaceOnUse" color-interpolation-filters="sRGB">
<feFlood flood-opacity="0" result="BackgroundImageFix"/>
<feColorMatrix in="SourceAlpha" type="matrix" values="0 0 0 0 0 0 0 0 0 0 0 0 0 0 0 0 0 0 127 0" result="hardAlpha"/>
<feOffset dy="3.59752"/>
<feGaussianBlur stdDeviation="2.39835"/>
<feComposite in2="hardAlpha" operator="out"/>
<feColorMatrix type="matrix" values="0 0 0 0 0.956863 0 0 0 0 0.294118 0 0 0 0 0.294118 0 0 0 0.25 0"/>
<feBlend mode="normal" in2="BackgroundImageFix" result="effect1_dropShadow_3_420"/>
<feBlend mode="normal" in="SourceGraphic" in2="effect1_dropShadow_3_420" result="shape"/>
</filter>
<filter id="filter3_d_3_420" x="356.056" y="179.072" width="31.5776" height="110.986" filterUnits="userSpaceOnUse" color-interpolation-filters="sRGB">
<feFlood flood-opacity="0" result="BackgroundImageFix"/>
<feColorMatrix in="SourceAlpha" type="matrix" values="0 0 0 0 0 0 0 0 0 0 0 0 0 0 0 0 0 0 127 0" result="hardAlpha"/>
<feOffset dy="3.59752"/>
<feGaussianBlur stdDeviation="2.39835"/>
<feComposite in2="hardAlpha" operator="out"/>
<feColorMatrix type="matrix" values="0 0 0 0 0.956863 0 0 0 0 0.294118 0 0 0 0 0.294118 0 0 0 0.25 0"/>
<feBlend mode="normal" in2="BackgroundImageFix" result="effect1_dropShadow_3_420"/>
<feBlend mode="normal" in="SourceGraphic" in2="effect1_dropShadow_3_420" result="shape"/>
</filter>
<filter id="filter4_d_3_420" x="132.963" y="319.405" width="31.5776" height="151.412" filterUnits="userSpaceOnUse" color-interpolation-filters="sRGB">
<feFlood flood-opacity="0" result="BackgroundImageFix"/>
<feColorMatrix in="SourceAlpha" type="matrix" values="0 0 0 0 0 0 0 0 0 0 0 0 0 0 0 0 0 0 127 0" result="hardAlpha"/>
<feOffset dy="3.59752"/>
<feGaussianBlur stdDeviation="2.39835"/>
<feComposite in2="hardAlpha" operator="out"/>
<feColorMatrix type="matrix" values="0 0 0 0 0.956863 0 0 0 0 0.294118 0 0 0 0 0.294118 0 0 0 0.25 0"/>
<feBlend mode="normal" in2="BackgroundImageFix" result="effect1_dropShadow_3_420"/>
<feBlend mode="normal" in="SourceGraphic" in2="effect1_dropShadow_3_420" result="shape"/>
</filter>
<filter id="filter5_d_3_420" x="439.717" y="80.5649" width="31.5776" height="151.412" filterUnits="userSpaceOnUse" color-interpolation-filters="sRGB">
<feFlood flood-opacity="0" result="BackgroundImageFix"/>
<feColorMatrix in="SourceAlpha" type="matrix" values="0 0 0 0 0 0 0 0 0 0 0 0 0 0 0 0 0 0 127 0" result="hardAlpha"/>
<feOffset dy="3.59752"/>
<feGaussianBlur stdDeviation="2.39835"/>
<feComposite in2="hardAlpha" operator="out"/>
<feColorMatrix type="matrix" values="0 0 0 0 0.956863 0 0 0 0 0.294118 0 0 0 0 0.294118 0 0 0 0.25 0"/>
<feBlend mode="normal" in2="BackgroundImageFix" result="effect1_dropShadow_3_420"/>
<feBlend mode="normal" in="SourceGraphic" in2="effect1_dropShadow_3_420" result="shape"/>
</filter>
<filter id="filter6_d_3_420" x="188.736" y="299.834" width="31.5776" height="211.452" filterUnits="userSpaceOnUse" color-interpolation-filters="sRGB">
<feFlood flood-opacity="0" result="BackgroundImageFix"/>
<feColorMatrix in="SourceAlpha" type="matrix" values="0 0 0 0 0 0 0 0 0 0 0 0 0 0 0 0 0 0 127 0" result="hardAlpha"/>
<feOffset dy="3.59752"/>
<feGaussianBlur stdDeviation="2.39835"/>
<feComposite in2="hardAlpha" operator="out"/>
<feColorMatrix type="matrix" values="0 0 0 0 0.956863 0 0 0 0 0.294118 0 0 0 0 0.294118 0 0 0 0.25 0"/>
<feBlend mode="normal" in2="BackgroundImageFix" result="effect1_dropShadow_3_420"/>
<feBlend mode="normal" in="SourceGraphic" in2="effect1_dropShadow_3_420" result="shape"/>
</filter>
<filter id="filter7_d_3_420" x="495.49" y="60.9939" width="31.5776" height="211.452" filterUnits="userSpaceOnUse" color-interpolation-filters="sRGB">
<feFlood flood-opacity="0" result="BackgroundImageFix"/>
<feColorMatrix in="SourceAlpha" type="matrix" values="0 0 0 0 0 0 0 0 0 0 0 0 0 0 0 0 0 0 127 0" result="hardAlpha"/>
<feOffset dy="3.59752"/>
<feGaussianBlur stdDeviation="2.39835"/>
<feComposite in2="hardAlpha" operator="out"/>
<feColorMatrix type="matrix" values="0 0 0 0 0.956863 0 0 0 0 0.294118 0 0 0 0 0.294118 0 0 0 0.25 0"/>
<feBlend mode="normal" in2="BackgroundImageFix" result="effect1_dropShadow_3_420"/>
<feBlend mode="normal" in="SourceGraphic" in2="effect1_dropShadow_3_420" result="shape"/>
</filter>
<filter id="filter8_d_3_420" x="244.51" y="192.591" width="31.5776" height="301.71" filterUnits="userSpaceOnUse" color-interpolation-filters="sRGB">
<feFlood flood-opacity="0" result="BackgroundImageFix"/>
<feColorMatrix in="SourceAlpha" type="matrix" values="0 0 0 0 0 0 0 0 0 0 0 0 0 0 0 0 0 0 127 0" result="hardAlpha"/>
<feOffset dy="3.59752"/>
<feGaussianBlur stdDeviation="2.39835"/>
<feComposite in2="hardAlpha" operator="out"/>
<feColorMatrix type="matrix" values="0 0 0 0 0.956863 0 0 0 0 0.294118 0 0 0 0 0.294118 0 0 0 0.25 0"/>
<feBlend mode="normal" in2="BackgroundImageFix" result="effect1_dropShadow_3_420"/>
<feBlend mode="normal" in="SourceGraphic" in2="effect1_dropShadow_3_420" result="shape"/>
</filter>
<filter id="filter9_d_3_420" x="21.4157" y="355.785" width="31.5776" height="273.552" filterUnits="userSpaceOnUse" color-interpolation-filters="sRGB">
<feFlood flood-opacity="0" result="BackgroundImageFix"/>
<feColorMatrix in="SourceAlpha" type="matrix" values="0 0 0 0 0 0 0 0 0 0 0 0 0 0 0 0 0 0 127 0" result="hardAlpha"/>
<feOffset dy="3.59752"/>
<feGaussianBlur stdDeviation="2.39835"/>
<feComposite in2="hardAlpha" operator="out"/>
<feColorMatrix type="matrix" values="0 0 0 0 0.286275 0 0 0 0 0.898039 0 0 0 0 0.231373 0 0 0 1 0"/>
<feBlend mode="normal" in2="BackgroundImageFix" result="effect1_dropShadow_3_420"/>
<feBlend mode="normal" in="SourceGraphic" in2="effect1_dropShadow_3_420" result="shape"/>
</filter>
<filter id="filter10_d_3_420" x="328.17" y="116.944" width="31.5776" height="273.552" filterUnits="userSpaceOnUse" color-interpolation-filters="sRGB">
<feFlood flood-opacity="0" result="BackgroundImageFix"/>
<feColorMatrix in="SourceAlpha" type="matrix" values="0 0 0 0 0 0 0 0 0 0 0 0 0 0 0 0 0 0 127 0" result="hardAlpha"/>
<feOffset dy="3.59752"/>
<feGaussianBlur stdDeviation="2.39835"/>
<feComposite in2="hardAlpha" operator="out"/>
<feColorMatrix type="matrix" values="0 0 0 0 0.286275 0 0 0 0 0.898039 0 0 0 0 0.231373 0 0 0 1 0"/>
<feBlend mode="normal" in2="BackgroundImageFix" result="effect1_dropShadow_3_420"/>
<feBlend mode="normal" in="SourceGraphic" in2="effect1_dropShadow_3_420" result="shape"/>
</filter>
<filter id="filter11_d_3_420" x="77.1891" y="357.916" width="31.5776" height="180.035" filterUnits="userSpaceOnUse" color-interpolation-filters="sRGB">
<feFlood flood-opacity="0" result="BackgroundImageFix"/>
<feColorMatrix in="SourceAlpha" type="matrix" values="0 0 0 0 0 0 0 0 0 0 0 0 0 0 0 0 0 0 127 0" result="hardAlpha"/>
<feOffset dy="3.59752"/>
<feGaussianBlur stdDeviation="2.39835"/>
<feComposite in2="hardAlpha" operator="out"/>
<feColorMatrix type="matrix" values="0 0 0 0 0.286275 0 0 0 0 0.898039 0 0 0 0 0.231373 0 0 0 1 0"/>
<feBlend mode="normal" in2="BackgroundImageFix" result="effect1_dropShadow_3_420"/>
<feBlend mode="normal" in="SourceGraphic" in2="effect1_dropShadow_3_420" result="shape"/>
</filter>
<filter id="filter12_d_3_420" x="383.943" y="119.075" width="31.5776" height="180.035" filterUnits="userSpaceOnUse" color-interpolation-filters="sRGB">
<feFlood flood-opacity="0" result="BackgroundImageFix"/>
<feColorMatrix in="SourceAlpha" type="matrix" values="0 0 0 0 0 0 0 0 0 0 0 0 0 0 0 0 0 0 127 0" result="hardAlpha"/>
<feOffset dy="3.59752"/>
<feGaussianBlur stdDeviation="2.39835"/>
<feComposite in2="hardAlpha" operator="out"/>
<feColorMatrix type="matrix" values="0 0 0 0 0.286275 0 0 0 0 0.898039 0 0 0 0 0.231373 0 0 0 1 0"/>
<feBlend mode="normal" in2="BackgroundImageFix" result="effect1_dropShadow_3_420"/>
<feBlend mode="normal" in="SourceGraphic" in2="effect1_dropShadow_3_420" result="shape"/>
</filter>
<filter id="filter13_d_3_420" x="105.076" y="340.304" width="31.5776" height="248.591" filterUnits="userSpaceOnUse" color-interpolation-filters="sRGB">
<feFlood flood-opacity="0" result="BackgroundImageFix"/>
<feColorMatrix in="SourceAlpha" type="matrix" values="0 0 0 0 0 0 0 0 0 0 0 0 0 0 0 0 0 0 127 0" result="hardAlpha"/>
<feOffset dy="3.59752"/>
<feGaussianBlur stdDeviation="2.39835"/>
<feComposite in2="hardAlpha" operator="out"/>
<feColorMatrix type="matrix" values="0 0 0 0 0.286275 0 0 0 0 0.898039 0 0 0 0 0.231373 0 0 0 1 0"/>
<feBlend mode="normal" in2="BackgroundImageFix" result="effect1_dropShadow_3_420"/>
<feBlend mode="normal" in="SourceGraphic" in2="effect1_dropShadow_3_420" result="shape"/>
</filter>
<filter id="filter14_d_3_420" x="411.83" y="101.463" width="31.5776" height="248.591" filterUnits="userSpaceOnUse" color-interpolation-filters="sRGB">
<feFlood flood-opacity="0" result="BackgroundImageFix"/>
<feColorMatrix in="SourceAlpha" type="matrix" values="0 0 0 0 0 0 0 0 0 0 0 0 0 0 0 0 0 0 127 0" result="hardAlpha"/>
<feOffset dy="3.59752"/>
<feGaussianBlur stdDeviation="2.39835"/>
<feComposite in2="hardAlpha" operator="out"/>
<feColorMatrix type="matrix" values="0 0 0 0 0.286275 0 0 0 0 0.898039 0 0 0 0 0.231373 0 0 0 1 0"/>
<feBlend mode="normal" in2="BackgroundImageFix" result="effect1_dropShadow_3_420"/>
<feBlend mode="normal" in="SourceGraphic" in2="effect1_dropShadow_3_420" result="shape"/>
</filter>
<filter id="filter15_d_3_420" x="160.849" y="323.318" width="31.5776" height="167.07" filterUnits="userSpaceOnUse" color-interpolation-filters="sRGB">
<feFlood flood-opacity="0" result="BackgroundImageFix"/>
<feColorMatrix in="SourceAlpha" type="matrix" values="0 0 0 0 0 0 0 0 0 0 0 0 0 0 0 0 0 0 127 0" result="hardAlpha"/>
<feOffset dy="3.59752"/>
<feGaussianBlur stdDeviation="2.39835"/>
<feComposite in2="hardAlpha" operator="out"/>
<feColorMatrix type="matrix" values="0 0 0 0 0.286275 0 0 0 0 0.898039 0 0 0 0 0.231373 0 0 0 1 0"/>
<feBlend mode="normal" in2="BackgroundImageFix" result="effect1_dropShadow_3_420"/>
<feBlend mode="normal" in="SourceGraphic" in2="effect1_dropShadow_3_420" result="shape"/>
</filter>
<filter id="filter16_d_3_420" x="467.603" y="84.4775" width="31.5776" height="167.07" filterUnits="userSpaceOnUse" color-interpolation-filters="sRGB">
<feFlood flood-opacity="0" result="BackgroundImageFix"/>
<feColorMatrix in="SourceAlpha" type="matrix" values="0 0 0 0 0 0 0 0 0 0 0 0 0 0 0 0 0 0 127 0" result="hardAlpha"/>
<feOffset dy="3.59752"/>
<feGaussianBlur stdDeviation="2.39835"/>
<feComposite in2="hardAlpha" operator="out"/>
<feColorMatrix type="matrix" values="0 0 0 0 0.286275 0 0 0 0 0.898039 0 0 0 0 0.231373 0 0 0 1 0"/>
<feBlend mode="normal" in2="BackgroundImageFix" result="effect1_dropShadow_3_420"/>
<feBlend mode="normal" in="SourceGraphic" in2="effect1_dropShadow_3_420" result="shape"/>
</filter>
<filter id="filter17_d_3_420" x="216.623" y="194.396" width="31.5776" height="394.374" filterUnits="userSpaceOnUse" color-interpolation-filters="sRGB">
<feFlood flood-opacity="0" result="BackgroundImageFix"/>
<feColorMatrix in="SourceAlpha" type="matrix" values="0 0 0 0 0 0 0 0 0 0 0 0 0 0 0 0 0 0 127 0" result="hardAlpha"/>
<feOffset dy="3.59752"/>
<feGaussianBlur stdDeviation="2.39835"/>
<feComposite in2="hardAlpha" operator="out"/>
<feColorMatrix type="matrix" values="0 0 0 0 0.286275 0 0 0 0 0.898039 0 0 0 0 0.231373 0 0 0 1 0"/>
<feBlend mode="normal" in2="BackgroundImageFix" result="effect1_dropShadow_3_420"/>
<feBlend mode="normal" in="SourceGraphic" in2="effect1_dropShadow_3_420" result="shape"/>
</filter>
<filter id="filter18_d_3_420" x="523.377" y="-44.4448" width="31.5776" height="394.374" filterUnits="userSpaceOnUse" color-interpolation-filters="sRGB">
<feFlood flood-opacity="0" result="BackgroundImageFix"/>
<feColorMatrix in="SourceAlpha" type="matrix" values="0 0 0 0 0 0 0 0 0 0 0 0 0 0 0 0 0 0 127 0" result="hardAlpha"/>
<feOffset dy="3.59752"/>
<feGaussianBlur stdDeviation="2.39835"/>
<feComposite in2="hardAlpha" operator="out"/>
<feColorMatrix type="matrix" values="0 0 0 0 0.286275 0 0 0 0 0.898039 0 0 0 0 0.231373 0 0 0 1 0"/>
<feBlend mode="normal" in2="BackgroundImageFix" result="effect1_dropShadow_3_420"/>
<feBlend mode="normal" in="SourceGraphic" in2="effect1_dropShadow_3_420" result="shape"/>
</filter>
<filter id="filter19_d_3_420" x="272.396" y="142.063" width="31.5776" height="358.534" filterUnits="userSpaceOnUse" color-interpolation-filters="sRGB">
<feFlood flood-opacity="0" result="BackgroundImageFix"/>
<feColorMatrix in="SourceAlpha" type="matrix" values="0 0 0 0 0 0 0 0 0 0 0 0 0 0 0 0 0 0 127 0" result="hardAlpha"/>
<feOffset dy="3.59752"/>
<feGaussianBlur stdDeviation="2.39835"/>
<feComposite in2="hardAlpha" operator="out"/>
<feColorMatrix type="matrix" values="0 0 0 0 0.286275 0 0 0 0 0.898039 0 0 0 0 0.231373 0 0 0 1 0"/>
<feBlend mode="normal" in2="BackgroundImageFix" result="effect1_dropShadow_3_420"/>
<feBlend mode="normal" in="SourceGraphic" in2="effect1_dropShadow_3_420" result="shape"/>
</filter>
</defs>
</svg>
