<svg width="176" height="38" viewBox="0 0 176 38" fill="none" xmlns="http://www.w3.org/2000/svg">
<path d="M56.0491 24.0388H57.3103C57.2078 25.0437 56.9309 25.9119 56.4797 26.6433C56.0286 27.368 55.4133 27.9251 54.634 28.3147C53.8547 28.7044 52.9148 28.8992 51.8142 28.8992C50.9666 28.8992 50.1975 28.7386 49.5071 28.4173C48.8235 28.096 48.2356 27.6414 47.7434 27.0535C47.2512 26.4588 46.8718 25.7478 46.6052 24.9207C46.3386 24.0935 46.2053 23.1741 46.2053 22.1624V20.2962C46.2053 19.2845 46.3386 18.3684 46.6052 17.5481C46.8718 16.721 47.2546 16.01 47.7537 15.4153C48.2527 14.8206 48.8508 14.3626 49.5481 14.0413C50.2454 13.72 51.0315 13.5594 51.9065 13.5594C52.9661 13.5594 53.8821 13.7542 54.6545 14.1438C55.427 14.5266 56.0354 15.0804 56.4797 15.805C56.9309 16.5296 57.2078 17.4046 57.3103 18.43H56.0491C55.9534 17.6233 55.7415 16.9397 55.4133 16.3792C55.0852 15.8186 54.6306 15.3914 54.0496 15.0974C53.4753 14.7967 52.761 14.6463 51.9065 14.6463C51.2092 14.6463 50.5872 14.7796 50.0403 15.0462C49.4934 15.3128 49.0286 15.6956 48.6458 16.1946C48.2629 16.6868 47.969 17.2781 47.7639 17.9685C47.5657 18.659 47.4666 19.428 47.4666 20.2757V22.1624C47.4666 22.9827 47.5623 23.7381 47.7537 24.4285C47.9451 25.1189 48.2253 25.7171 48.5945 26.2229C48.9705 26.7288 49.4285 27.1219 49.9685 27.4021C50.5085 27.6824 51.1238 27.8225 51.8142 27.8225C52.696 27.8225 53.4309 27.6824 54.0188 27.4021C54.6135 27.115 55.075 26.6912 55.4031 26.1306C55.7312 25.5701 55.9465 24.8728 56.0491 24.0388ZM61.3196 19.4348V28.6941H60.0994V17.5994H61.2888L61.3196 19.4348ZM65.2468 17.5174L65.2161 18.6453C65.0793 18.6248 64.946 18.6077 64.8162 18.594C64.6863 18.5804 64.5461 18.5735 64.3958 18.5735C63.8625 18.5735 63.3943 18.6726 62.991 18.8709C62.5945 19.0623 62.2595 19.3323 61.9861 19.6809C61.7126 20.0227 61.5042 20.4261 61.3606 20.8909C61.217 21.3489 61.135 21.8411 61.1145 22.3675L60.6633 22.5418C60.6633 21.8172 60.7385 21.1438 60.8889 20.5218C61.0393 19.8997 61.2683 19.3562 61.5759 18.8914C61.8904 18.4197 62.2834 18.054 62.7551 17.7942C63.2336 17.5276 63.7942 17.3943 64.4368 17.3943C64.594 17.3943 64.7478 17.408 64.8982 17.4353C65.0554 17.4558 65.1716 17.4832 65.2468 17.5174ZM70.6506 27.5867L74.1062 17.5994H75.429L70.7327 30.4783C70.637 30.7312 70.5139 31.0115 70.3635 31.3191C70.22 31.6267 70.0286 31.9207 69.7893 32.201C69.5569 32.4881 69.2629 32.7205 68.9075 32.8982C68.5588 33.0828 68.1316 33.1751 67.6257 33.1751C67.4958 33.1751 67.3284 33.158 67.1233 33.1238C66.925 33.0965 66.7815 33.0691 66.6926 33.0418L66.6824 32.0061C66.7576 32.0266 66.8669 32.0437 67.0105 32.0574C67.1541 32.0711 67.2532 32.0779 67.3079 32.0779C67.7522 32.0779 68.1248 32.0027 68.4255 31.8523C68.7332 31.7019 68.9895 31.4763 69.1946 31.1756C69.3997 30.8816 69.5808 30.5125 69.738 30.0681L70.6506 27.5867ZM67.4207 17.5994L70.9583 27.1253L71.2864 28.407L70.3943 28.9095L66.0876 17.5994H67.4207ZM78.5564 19.7322V32.9597H77.3259V17.5994H78.4744L78.5564 19.7322ZM86.2673 23.0442V23.2596C86.2673 24.0867 86.1716 24.8455 85.9802 25.5359C85.7888 26.2263 85.512 26.8245 85.1497 27.3304C84.7942 27.8294 84.3533 28.2156 83.8269 28.489C83.3005 28.7625 82.7024 28.8992 82.0325 28.8992C81.3694 28.8992 80.7781 28.7967 80.2585 28.5916C79.739 28.3865 79.2913 28.096 78.9153 27.72C78.5461 27.3372 78.2488 26.8929 78.0232 26.387C77.8044 25.8743 77.6506 25.3138 77.5618 24.7054V21.865C77.6643 21.1951 77.8318 20.5867 78.0642 20.0398C78.2966 19.493 78.594 19.0213 78.9563 18.6248C79.3254 18.2283 79.7629 17.9241 80.2688 17.7122C80.7747 17.5003 81.3523 17.3943 82.0017 17.3943C82.6785 17.3943 83.28 17.5276 83.8064 17.7942C84.3396 18.054 84.7874 18.4334 85.1497 18.9324C85.5188 19.4246 85.7957 20.0193 85.9802 20.7166C86.1716 21.407 86.2673 22.1829 86.2673 23.0442ZM85.0369 23.2596V23.0442C85.0369 22.3948 84.9685 21.7932 84.8318 21.2395C84.7019 20.6858 84.5002 20.2039 84.2268 19.7937C83.9602 19.3767 83.6184 19.052 83.2014 18.8196C82.7913 18.5872 82.3025 18.471 81.7351 18.471C81.1472 18.471 80.6448 18.5701 80.2278 18.7683C79.8176 18.9597 79.4758 19.2161 79.2024 19.5374C78.929 19.8518 78.7136 20.1971 78.5564 20.573C78.3992 20.949 78.283 21.3181 78.2078 21.6805V24.9514C78.3376 25.471 78.5461 25.9529 78.8333 26.3972C79.1204 26.8347 79.5032 27.1868 79.9817 27.4534C80.467 27.7132 81.0583 27.843 81.7556 27.843C82.3162 27.843 82.8015 27.7268 83.2117 27.4944C83.6218 27.262 83.9602 26.9373 84.2268 26.5203C84.5002 26.1033 84.7019 25.618 84.8318 25.0642C84.9685 24.5105 85.0369 23.909 85.0369 23.2596ZM93.1887 17.5994V18.6043H87.6311V17.5994H93.1887ZM89.6716 14.7488H90.8918V25.9973C90.8918 26.51 90.9602 26.8963 91.0969 27.156C91.2336 27.4158 91.4114 27.5901 91.6301 27.679C91.8489 27.7679 92.0847 27.8123 92.3376 27.8123C92.5222 27.8123 92.7 27.802 92.8708 27.7815C93.0417 27.7542 93.1956 27.7268 93.3323 27.6995L93.3835 28.7351C93.2332 28.783 93.0383 28.8206 92.7991 28.8479C92.5598 28.8821 92.3206 28.8992 92.0813 28.8992C91.6096 28.8992 91.1926 28.8138 90.8303 28.6429C90.468 28.4651 90.1843 28.1643 89.9792 27.7405C89.7742 27.3098 89.6716 26.7254 89.6716 25.9871V14.7488ZM94.8806 23.3211V22.9827C94.8806 22.1761 94.9968 21.4309 95.2292 20.7473C95.4617 20.0638 95.7932 19.4724 96.2239 18.9734C96.6614 18.4744 97.1843 18.0882 97.7927 17.8147C98.4011 17.5345 99.0779 17.3943 99.823 17.3943C100.575 17.3943 101.255 17.5345 101.864 17.8147C102.472 18.0882 102.995 18.4744 103.432 18.9734C103.87 19.4724 104.205 20.0638 104.437 20.7473C104.67 21.4309 104.786 22.1761 104.786 22.9827V23.3211C104.786 24.1277 104.67 24.8728 104.437 25.5564C104.205 26.2332 103.87 26.8211 103.432 27.3201C103.002 27.8191 102.482 28.2088 101.874 28.489C101.265 28.7625 100.589 28.8992 99.8435 28.8992C99.0916 28.8992 98.4114 28.7625 97.803 28.489C97.1946 28.2088 96.6716 27.8191 96.2341 27.3201C95.7966 26.8211 95.4617 26.2332 95.2292 25.5564C94.9968 24.8728 94.8806 24.1277 94.8806 23.3211ZM96.1008 22.9827V23.3211C96.1008 23.9295 96.1829 24.5071 96.3469 25.054C96.511 25.594 96.7502 26.076 97.0647 26.4998C97.3792 26.9168 97.7688 27.2449 98.2336 27.4842C98.6985 27.7234 99.2351 27.843 99.8435 27.843C100.445 27.843 100.975 27.7234 101.433 27.4842C101.898 27.2449 102.287 26.9168 102.602 26.4998C102.916 26.076 103.152 25.594 103.309 25.054C103.473 24.5071 103.555 23.9295 103.555 23.3211V22.9827C103.555 22.3811 103.473 21.8103 103.309 21.2703C103.152 20.7303 102.913 20.2483 102.592 19.8245C102.277 19.4007 101.887 19.0657 101.423 18.8196C100.958 18.5735 100.425 18.4505 99.823 18.4505C99.2214 18.4505 98.6882 18.5735 98.2234 18.8196C97.7654 19.0657 97.3757 19.4007 97.0544 19.8245C96.74 20.2483 96.5007 20.7303 96.3367 21.2703C96.1794 21.8103 96.1008 22.3811 96.1008 22.9827ZM116.065 25.0232C116.065 24.6131 115.997 24.2473 115.86 23.9261C115.723 23.6048 115.498 23.3177 115.183 23.0647C114.876 22.805 114.459 22.5657 113.932 22.347C113.413 22.1214 112.763 21.8992 111.984 21.6805C111.239 21.4685 110.566 21.2361 109.964 20.9832C109.363 20.7303 108.846 20.4397 108.416 20.1116C107.992 19.7835 107.667 19.4007 107.442 18.9632C107.216 18.5188 107.103 18.0027 107.103 17.4148C107.103 16.8406 107.226 16.3177 107.472 15.846C107.719 15.3743 108.064 14.9676 108.508 14.6258C108.959 14.284 109.489 14.0208 110.097 13.8362C110.713 13.6516 111.386 13.5594 112.117 13.5594C113.163 13.5594 114.066 13.7576 114.824 14.1541C115.59 14.5506 116.181 15.0872 116.598 15.7639C117.022 16.4339 117.234 17.1858 117.234 18.0198H115.973C115.973 17.3704 115.819 16.7928 115.511 16.2869C115.211 15.7742 114.773 15.3743 114.199 15.0872C113.632 14.7932 112.938 14.6463 112.117 14.6463C111.297 14.6463 110.607 14.7727 110.046 15.0257C109.492 15.2718 109.072 15.6033 108.785 16.0203C108.505 16.4305 108.365 16.8885 108.365 17.3943C108.365 17.7498 108.433 18.0779 108.57 18.3787C108.706 18.6726 108.928 18.9495 109.236 19.2093C109.551 19.4622 109.964 19.7014 110.477 19.927C110.99 20.1458 111.622 20.3543 112.374 20.5525C113.167 20.7713 113.871 21.0139 114.486 21.2805C115.101 21.5471 115.621 21.8548 116.045 22.2034C116.469 22.5452 116.79 22.9451 117.009 23.4031C117.227 23.8611 117.337 24.3943 117.337 25.0027C117.337 25.6111 117.207 26.158 116.947 26.6433C116.694 27.1219 116.335 27.5286 115.87 27.8636C115.412 28.1985 114.869 28.4549 114.24 28.6326C113.618 28.8103 112.938 28.8992 112.199 28.8992C111.536 28.8992 110.877 28.8138 110.22 28.6429C109.564 28.472 108.963 28.2088 108.416 27.8533C107.876 27.491 107.442 27.0262 107.114 26.4588C106.792 25.8914 106.632 25.2146 106.632 24.4285H107.883C107.883 25.0574 108.009 25.5872 108.262 26.0179C108.515 26.4485 108.85 26.7971 109.267 27.0638C109.691 27.3304 110.156 27.5252 110.661 27.6482C111.174 27.7644 111.687 27.8225 112.199 27.8225C112.986 27.8225 113.666 27.7063 114.24 27.4739C114.821 27.2415 115.269 26.9168 115.583 26.4998C115.905 26.076 116.065 25.5838 116.065 25.0232ZM123.971 17.5994V18.6043H118.413V17.5994H123.971ZM120.454 14.7488H121.674V25.9973C121.674 26.51 121.742 26.8963 121.879 27.156C122.016 27.4158 122.194 27.5901 122.412 27.679C122.631 27.7679 122.867 27.8123 123.12 27.8123C123.304 27.8123 123.482 27.802 123.653 27.7815C123.824 27.7542 123.978 27.7268 124.115 27.6995L124.166 28.7351C124.015 28.783 123.821 28.8206 123.581 28.8479C123.342 28.8821 123.103 28.8992 122.864 28.8992C122.392 28.8992 121.975 28.8138 121.613 28.6429C121.25 28.4651 120.967 28.1643 120.761 27.7405C120.556 27.3098 120.454 26.7254 120.454 25.9871V14.7488ZM133.292 26.7049V20.9832C133.292 20.4568 133.182 20.0022 132.964 19.6194C132.745 19.2366 132.424 18.9427 132 18.7376C131.576 18.5325 131.053 18.43 130.431 18.43C129.857 18.43 129.344 18.5325 128.893 18.7376C128.448 18.9358 128.096 19.2058 127.837 19.5476C127.584 19.8826 127.457 20.2552 127.457 20.6653L126.227 20.6551C126.227 20.2381 126.329 19.8347 126.534 19.4451C126.74 19.0555 127.03 18.7068 127.406 18.3992C127.782 18.0916 128.23 17.8489 128.749 17.6712C129.276 17.4866 129.853 17.3943 130.482 17.3943C131.275 17.3943 131.972 17.5276 132.574 17.7942C133.182 18.0608 133.657 18.4607 133.999 18.9939C134.341 19.5271 134.512 20.1971 134.512 21.0037V26.3665C134.512 26.7493 134.539 27.1458 134.594 27.5559C134.656 27.9661 134.741 28.3045 134.85 28.5711V28.6941H133.548C133.466 28.448 133.401 28.1404 133.353 27.7713C133.312 27.3953 133.292 27.0398 133.292 26.7049ZM133.579 22.2342L133.599 23.1775H131.19C130.561 23.1775 129.997 23.2356 129.498 23.3518C129.006 23.4612 128.589 23.6253 128.247 23.844C127.905 24.0559 127.642 24.3123 127.457 24.6131C127.28 24.9138 127.191 25.2556 127.191 25.6385C127.191 26.0349 127.29 26.3972 127.488 26.7254C127.693 27.0535 127.98 27.3167 128.349 27.5149C128.725 27.7063 129.17 27.802 129.682 27.802C130.366 27.802 130.968 27.6756 131.487 27.4226C132.013 27.1697 132.448 26.8382 132.789 26.428C133.131 26.0179 133.36 25.5701 133.476 25.0847L134.01 25.7923C133.921 26.1341 133.757 26.4861 133.517 26.8484C133.285 27.2039 132.981 27.5388 132.605 27.8533C132.229 28.1609 131.784 28.4138 131.272 28.6121C130.766 28.8035 130.192 28.8992 129.549 28.8992C128.824 28.8992 128.192 28.7625 127.652 28.489C127.119 28.2156 126.702 27.843 126.401 27.3714C126.107 26.8929 125.96 26.3528 125.96 25.7513C125.96 25.2044 126.076 24.7156 126.309 24.2849C126.541 23.8474 126.876 23.4783 127.314 23.1775C127.758 22.8699 128.291 22.6375 128.913 22.4803C129.542 22.3162 130.246 22.2342 131.026 22.2342H133.579ZM141.895 27.843C142.414 27.843 142.9 27.7473 143.351 27.5559C143.809 27.3577 144.185 27.0672 144.479 26.6844C144.78 26.2947 144.95 25.8196 144.991 25.2591H146.16C146.126 25.9632 145.911 26.5921 145.514 27.1458C145.125 27.6927 144.612 28.1233 143.976 28.4378C143.347 28.7454 142.654 28.8992 141.895 28.8992C141.122 28.8992 140.439 28.7591 139.844 28.4788C139.256 28.1985 138.764 27.8089 138.367 27.3098C137.971 26.804 137.67 26.2161 137.465 25.5462C137.267 24.8694 137.168 24.1414 137.168 23.3621V22.9314C137.168 22.1521 137.267 21.4275 137.465 20.7576C137.67 20.0808 137.971 19.493 138.367 18.9939C138.764 18.4881 139.256 18.095 139.844 17.8147C140.432 17.5345 141.112 17.3943 141.885 17.3943C142.677 17.3943 143.388 17.555 144.017 17.8763C144.653 18.1975 145.159 18.6521 145.535 19.24C145.918 19.8279 146.126 20.5252 146.16 21.3318H144.991C144.957 20.7371 144.8 20.2244 144.52 19.7937C144.24 19.3631 143.87 19.0315 143.412 18.7991C142.954 18.5667 142.445 18.4505 141.885 18.4505C141.256 18.4505 140.719 18.5735 140.275 18.8196C139.83 19.0589 139.468 19.3904 139.188 19.8142C138.914 20.2312 138.713 20.7097 138.583 21.2498C138.453 21.783 138.388 22.3435 138.388 22.9314V23.3621C138.388 23.9568 138.449 24.5242 138.573 25.0642C138.702 25.5974 138.904 26.0725 139.177 26.4895C139.458 26.9065 139.82 27.2381 140.264 27.4842C140.716 27.7234 141.259 27.843 141.895 27.843ZM149.852 12.9441V28.6941H148.632V12.9441H149.852ZM156.814 17.5994L151.626 22.7469L149.421 24.8797L149.237 23.68L151.01 21.7625L155.266 17.5994H156.814ZM155.748 28.6941L151.113 22.9314L151.79 21.8753L157.224 28.6941H155.748ZM165.571 25.864C165.571 25.5633 165.496 25.2659 165.345 24.972C165.195 24.678 164.905 24.408 164.474 24.1619C164.05 23.9158 163.425 23.7073 162.597 23.5364C161.982 23.3997 161.432 23.2459 160.947 23.075C160.468 22.9041 160.065 22.699 159.737 22.4597C159.408 22.2205 159.159 21.9334 158.988 21.5984C158.817 21.2635 158.732 20.867 158.732 20.409C158.732 19.9988 158.821 19.6126 158.998 19.2503C159.183 18.8811 159.443 18.5598 159.778 18.2864C160.119 18.0061 160.53 17.7874 161.008 17.6302C161.493 17.4729 162.037 17.3943 162.638 17.3943C163.493 17.3943 164.224 17.5413 164.833 17.8352C165.448 18.1223 165.916 18.5154 166.238 19.0144C166.566 19.5135 166.73 20.0774 166.73 20.7063H165.51C165.51 20.3235 165.397 19.9612 165.171 19.6194C164.952 19.2776 164.628 18.9973 164.197 18.7786C163.773 18.5598 163.254 18.4505 162.638 18.4505C162.003 18.4505 161.487 18.5462 161.09 18.7376C160.694 18.929 160.403 19.1717 160.219 19.4656C160.041 19.7596 159.952 20.0638 159.952 20.3782C159.952 20.6243 159.99 20.8499 160.065 21.055C160.147 21.2532 160.29 21.4378 160.495 21.6087C160.707 21.7796 161.008 21.9402 161.398 22.0906C161.787 22.241 162.293 22.388 162.915 22.5315C163.811 22.7298 164.542 22.9724 165.11 23.2596C165.684 23.5398 166.108 23.8885 166.381 24.3055C166.655 24.7156 166.791 25.2146 166.791 25.8025C166.791 26.2605 166.696 26.6809 166.504 27.0638C166.313 27.4397 166.036 27.7644 165.674 28.0379C165.318 28.3113 164.887 28.5232 164.382 28.6736C163.883 28.824 163.322 28.8992 162.7 28.8992C161.763 28.8992 160.97 28.7454 160.321 28.4378C159.678 28.1233 159.19 27.7132 158.855 27.2073C158.527 26.6946 158.363 26.1512 158.363 25.5769H159.583C159.624 26.1512 159.805 26.6057 160.126 26.9407C160.448 27.2688 160.841 27.5013 161.305 27.638C161.777 27.7747 162.242 27.843 162.7 27.843C163.329 27.843 163.855 27.7508 164.279 27.5662C164.703 27.3816 165.024 27.1389 165.243 26.8382C165.462 26.5374 165.571 26.2127 165.571 25.864Z" fill="white"/>
<rect x="1.79216" y="1.41579" width="34.3719" height="35.0722" stroke="#F45321" stroke-width="2.41568"/>
<path d="M20.7041 23.0924H25.459C25.3635 24.6508 24.9342 26.0344 24.1708 27.243C23.4181 28.4516 22.3632 29.3951 21.0062 30.0737C19.6598 30.7522 18.0377 31.0914 16.14 31.0914C14.6557 31.0914 13.3252 30.837 12.1484 30.3281C10.9716 29.8086 9.96445 29.0665 9.1269 28.1017C8.29996 27.137 7.66916 25.9708 7.23448 24.6031C6.79981 23.2355 6.58247 21.7035 6.58247 20.0073V18.4011C6.58247 16.7048 6.80511 15.1728 7.25039 13.8052C7.70626 12.427 8.35297 11.2555 9.19052 10.2907C10.0387 9.32596 11.0511 8.58383 12.2279 8.06434C13.4047 7.54485 14.7193 7.28511 16.1718 7.28511C18.1013 7.28511 19.7287 7.63497 21.0539 8.33469C22.3897 9.03441 23.4234 9.99917 24.1549 11.229C24.8971 12.4588 25.3423 13.8582 25.4908 15.4273H20.72C20.667 14.4943 20.4814 13.7045 20.1634 13.0578C19.8453 12.4005 19.3629 11.9075 18.7162 11.5788C18.0801 11.2396 17.232 11.0699 16.1718 11.0699C15.3767 11.0699 14.6822 11.2184 14.0885 11.5152C13.4948 11.8121 12.9966 12.2627 12.5937 12.867C12.1908 13.4713 11.8887 14.2346 11.6872 15.1569C11.4964 16.0687 11.401 17.1395 11.401 18.3693V20.0073C11.401 21.2053 11.4911 22.2601 11.6713 23.1719C11.8516 24.073 12.1272 24.8364 12.4983 25.4619C12.8799 26.0768 13.3676 26.5433 13.9613 26.8613C14.5656 27.1688 15.2918 27.3225 16.14 27.3225C17.1366 27.3225 17.9582 27.1635 18.6049 26.8454C19.2516 26.5274 19.7446 26.0556 20.0839 25.4301C20.4337 24.8046 20.6404 24.0253 20.7041 23.0924ZM26.4786 24.7145C26.4786 24.301 26.415 23.9299 26.2878 23.6013C26.1712 23.262 25.9486 22.9546 25.6199 22.6789C25.2912 22.3927 24.8301 22.1117 24.2364 21.8361C23.6427 21.5604 22.874 21.2742 21.9305 20.9773C20.8809 20.6381 19.8843 20.2564 18.9408 19.8323C18.0078 19.4083 17.1809 18.9153 16.4599 18.3534C15.7496 17.7809 15.1877 17.1183 14.7743 16.3655C14.3714 15.6128 14.17 14.7382 14.17 13.7416C14.17 12.7768 14.382 11.9022 14.8061 11.1177C15.2301 10.3225 15.8238 9.64401 16.5872 9.08211C17.3505 8.50962 18.2517 8.06964 19.2906 7.76219C20.3402 7.45474 21.4905 7.30101 22.7415 7.30101C24.4484 7.30101 25.9379 7.60847 27.2102 8.22337C28.4824 8.83827 29.4683 9.68112 30.1681 10.7519C30.8784 11.8227 31.2335 13.0472 31.2335 14.4254H26.4945C26.4945 13.7469 26.3514 13.1532 26.0652 12.6443C25.7895 12.1248 25.3655 11.7167 24.793 11.4198C24.2311 11.123 23.5207 10.9745 22.662 10.9745C21.8351 10.9745 21.1459 11.1018 20.5946 11.3562C20.0434 11.6 19.6299 11.934 19.3542 12.3581C19.0786 12.7715 18.9408 13.238 18.9408 13.7575C18.9408 14.1498 19.0362 14.5049 19.227 14.823C19.4285 15.141 19.7253 15.4379 20.1176 15.7135C20.5098 15.9892 20.9922 16.2489 21.5647 16.4928C22.1372 16.7366 22.7998 16.9751 23.5525 17.2084C24.8142 17.5901 25.922 18.0194 26.8762 18.4965C27.841 18.9736 28.6467 19.509 29.2934 20.1027C29.9401 20.6964 30.4278 21.3696 30.7565 22.1223C31.0851 22.875 31.2494 23.7285 31.2494 24.6826C31.2494 25.6898 31.0533 26.591 30.661 27.3861C30.2688 28.1812 29.7016 28.8545 28.9595 29.4057C28.2173 29.957 27.3321 30.3758 26.3037 30.6621C25.2753 30.9483 24.125 31.0914 22.8528 31.0914C21.7078 31.0914 20.5787 30.943 19.4656 30.6462C18.3524 30.3387 17.3399 29.8775 16.4281 29.2626C15.527 28.6477 14.8061 27.8632 14.2654 26.909C13.7247 25.9549 13.4543 24.8258 13.4543 23.5218H18.2411C18.2411 24.2427 18.3524 24.8523 18.575 25.3506C18.7976 25.8488 19.1104 26.2517 19.5133 26.5592C19.9267 26.8666 20.4144 27.0893 20.9763 27.2271C21.5488 27.3649 22.1743 27.4338 22.8528 27.4338C23.6798 27.4338 24.3583 27.3172 24.8884 27.084C25.4291 26.8507 25.8266 26.5274 26.0811 26.1139C26.3461 25.7004 26.4786 25.2339 26.4786 24.7145Z" fill="#F45321"/>
</svg>
